<mxfile host="drawio.corp.amazon.com" modified="2025-08-24T23:22:15.916Z" agent="Mozilla/5.0 (Macintosh; Intel Mac OS X 10_15_7) AppleWebKit/537.36 (KHTML, like Gecko) Chrome/139.0.0.0 Safari/537.36" etag="yilvsQ0uzp8yIK5DjGKk" version="21.7.4" type="device">
  <diagram name="Page-1" id="8mD6x9hx4HXeN0lMrluO">
    <mxGraphModel dx="964" dy="485" grid="1" gridSize="10" guides="1" tooltips="1" connect="1" arrows="1" fold="1" page="1" pageScale="1" pageWidth="850" pageHeight="1100" math="0" shadow="0">
      <root>
        <mxCell id="0" />
        <mxCell id="1" parent="0" />
        <mxCell id="OD8RSAhp9z3uNDb_zqKp-6" value="Customer Account" style="points=[[0,0],[0.25,0],[0.5,0],[0.75,0],[1,0],[1,0.25],[1,0.5],[1,0.75],[1,1],[0.75,1],[0.5,1],[0.25,1],[0,1],[0,0.75],[0,0.5],[0,0.25]];outlineConnect=0;gradientColor=none;html=1;whiteSpace=wrap;fontSize=12;fontStyle=0;container=1;pointerEvents=0;collapsible=0;recursiveResize=0;shape=mxgraph.aws4.group;grIcon=mxgraph.aws4.group_account;strokeColor=#CD2264;fillColor=none;verticalAlign=top;align=left;spacingLeft=30;fontColor=#CD2264;dashed=0;" parent="1" vertex="1">
          <mxGeometry x="50" y="70" width="390" height="350" as="geometry" />
        </mxCell>
        <mxCell id="OD8RSAhp9z3uNDb_zqKp-1" value="" style="sketch=0;outlineConnect=0;fontColor=#232F3E;gradientColor=none;fillColor=#DD344C;strokeColor=none;dashed=0;verticalLabelPosition=bottom;verticalAlign=top;align=center;html=1;fontSize=12;fontStyle=0;aspect=fixed;pointerEvents=1;shape=mxgraph.aws4.data_encryption_key;" parent="OD8RSAhp9z3uNDb_zqKp-6" vertex="1">
          <mxGeometry x="350" y="10" width="32" height="40.26" as="geometry" />
        </mxCell>
        <mxCell id="NR9jmGTlMgP28qfGdQP9-2" style="edgeStyle=orthogonalEdgeStyle;rounded=0;orthogonalLoop=1;jettySize=auto;html=1;" edge="1" parent="OD8RSAhp9z3uNDb_zqKp-6" source="OD8RSAhp9z3uNDb_zqKp-2" target="OD8RSAhp9z3uNDb_zqKp-4">
          <mxGeometry relative="1" as="geometry" />
        </mxCell>
        <mxCell id="NR9jmGTlMgP28qfGdQP9-5" value="S3 Event&lt;br&gt;Notification" style="edgeLabel;html=1;align=center;verticalAlign=middle;resizable=0;points=[];" vertex="1" connectable="0" parent="NR9jmGTlMgP28qfGdQP9-2">
          <mxGeometry x="-0.0315" y="-1" relative="1" as="geometry">
            <mxPoint as="offset" />
          </mxGeometry>
        </mxCell>
        <mxCell id="OD8RSAhp9z3uNDb_zqKp-2" value="Source Bucket" style="sketch=0;outlineConnect=0;fontColor=#232F3E;gradientColor=none;fillColor=#7AA116;strokeColor=none;dashed=0;verticalLabelPosition=bottom;verticalAlign=top;align=center;html=1;fontSize=12;fontStyle=0;aspect=fixed;pointerEvents=1;shape=mxgraph.aws4.bucket_with_objects;" parent="OD8RSAhp9z3uNDb_zqKp-6" vertex="1">
          <mxGeometry x="51" y="130" width="75" height="78" as="geometry" />
        </mxCell>
        <mxCell id="OD8RSAhp9z3uNDb_zqKp-4" value="" style="sketch=0;outlineConnect=0;fontColor=#232F3E;gradientColor=none;fillColor=#ED7100;strokeColor=none;dashed=0;verticalLabelPosition=bottom;verticalAlign=top;align=center;html=1;fontSize=12;fontStyle=0;aspect=fixed;pointerEvents=1;shape=mxgraph.aws4.lambda_function;" parent="OD8RSAhp9z3uNDb_zqKp-6" vertex="1">
          <mxGeometry x="257" y="135" width="68" height="68" as="geometry" />
        </mxCell>
        <mxCell id="OD8RSAhp9z3uNDb_zqKp-5" value="" style="outlineConnect=0;dashed=0;verticalLabelPosition=bottom;verticalAlign=top;align=center;html=1;shape=mxgraph.aws3.role;fillColor=#759C3E;gradientColor=none;" parent="OD8RSAhp9z3uNDb_zqKp-6" vertex="1">
          <mxGeometry x="273.16999999999996" y="100" width="35.66" height="30" as="geometry" />
        </mxCell>
        <mxCell id="NR9jmGTlMgP28qfGdQP9-8" style="edgeStyle=orthogonalEdgeStyle;rounded=0;orthogonalLoop=1;jettySize=auto;html=1;" edge="1" parent="OD8RSAhp9z3uNDb_zqKp-6" source="NR9jmGTlMgP28qfGdQP9-7" target="OD8RSAhp9z3uNDb_zqKp-2">
          <mxGeometry relative="1" as="geometry" />
        </mxCell>
        <mxCell id="NR9jmGTlMgP28qfGdQP9-9" value="Upload files" style="edgeLabel;html=1;align=center;verticalAlign=middle;resizable=0;points=[];" vertex="1" connectable="0" parent="NR9jmGTlMgP28qfGdQP9-8">
          <mxGeometry x="0.0818" y="1" relative="1" as="geometry">
            <mxPoint x="-1" y="-7" as="offset" />
          </mxGeometry>
        </mxCell>
        <mxCell id="NR9jmGTlMgP28qfGdQP9-7" value="" style="sketch=0;outlineConnect=0;fontColor=#232F3E;gradientColor=none;fillColor=#232F3D;strokeColor=none;dashed=0;verticalLabelPosition=bottom;verticalAlign=top;align=center;html=1;fontSize=12;fontStyle=0;aspect=fixed;pointerEvents=1;shape=mxgraph.aws4.user;" vertex="1" parent="OD8RSAhp9z3uNDb_zqKp-6">
          <mxGeometry x="73.5" y="40" width="30" height="30" as="geometry" />
        </mxCell>
        <mxCell id="OD8RSAhp9z3uNDb_zqKp-7" value="Validation Account" style="points=[[0,0],[0.25,0],[0.5,0],[0.75,0],[1,0],[1,0.25],[1,0.5],[1,0.75],[1,1],[0.75,1],[0.5,1],[0.25,1],[0,1],[0,0.75],[0,0.5],[0,0.25]];outlineConnect=0;gradientColor=none;html=1;whiteSpace=wrap;fontSize=12;fontStyle=0;container=1;pointerEvents=0;collapsible=0;recursiveResize=0;shape=mxgraph.aws4.group;grIcon=mxgraph.aws4.group_account;strokeColor=#CD2264;fillColor=none;verticalAlign=top;align=left;spacingLeft=30;fontColor=#CD2264;dashed=0;" parent="1" vertex="1">
          <mxGeometry x="480" y="70" width="230" height="350" as="geometry" />
        </mxCell>
        <mxCell id="OD8RSAhp9z3uNDb_zqKp-3" value="Ingestion Bucket" style="sketch=0;outlineConnect=0;fontColor=#232F3E;gradientColor=none;fillColor=#7AA116;strokeColor=none;dashed=0;verticalLabelPosition=bottom;verticalAlign=top;align=center;html=1;fontSize=12;fontStyle=0;aspect=fixed;pointerEvents=1;shape=mxgraph.aws4.bucket_with_objects;" parent="OD8RSAhp9z3uNDb_zqKp-7" vertex="1">
          <mxGeometry x="60" y="130" width="75" height="78" as="geometry" />
        </mxCell>
        <mxCell id="NR9jmGTlMgP28qfGdQP9-3" value="" style="sketch=0;outlineConnect=0;fontColor=#232F3E;gradientColor=none;fillColor=#DD344C;strokeColor=none;dashed=0;verticalLabelPosition=bottom;verticalAlign=top;align=center;html=1;fontSize=12;fontStyle=0;aspect=fixed;pointerEvents=1;shape=mxgraph.aws4.data_encryption_key;" vertex="1" parent="OD8RSAhp9z3uNDb_zqKp-7">
          <mxGeometry x="190" y="10" width="32" height="40.26" as="geometry" />
        </mxCell>
        <mxCell id="NR9jmGTlMgP28qfGdQP9-4" style="edgeStyle=orthogonalEdgeStyle;rounded=0;orthogonalLoop=1;jettySize=auto;html=1;" edge="1" parent="1" source="OD8RSAhp9z3uNDb_zqKp-4" target="OD8RSAhp9z3uNDb_zqKp-3">
          <mxGeometry relative="1" as="geometry" />
        </mxCell>
        <mxCell id="NR9jmGTlMgP28qfGdQP9-6" value="Copy object" style="edgeLabel;html=1;align=center;verticalAlign=middle;resizable=0;points=[];" vertex="1" connectable="0" parent="NR9jmGTlMgP28qfGdQP9-4">
          <mxGeometry x="-0.4909" relative="1" as="geometry">
            <mxPoint x="43" as="offset" />
          </mxGeometry>
        </mxCell>
      </root>
    </mxGraphModel>
  </diagram>
</mxfile>
